<svg xmlns="http://www.w3.org/2000/svg" viewBox="0 0 256 256" role="img" aria-labelledby="title desc">
  <title id="title">ヘルプ</title>
  <desc id="desc">白い縁取りの金色のひし形プレートを小さなクエスチョンマーク形にくりぬいたヘルプアイコン</desc>
  <defs>
    <mask id="question-cutout" maskUnits="userSpaceOnUse" x="0" y="0" width="256" height="256">
      <rect width="256" height="256" fill="white"/>
      <path d="M101.76 107.86c1.64-17.22 12.3-27.88 29.52-27.88 18.04 0 30.34 11.48 30.34 27.88 0 13.94-7.38 21.32-18.86 28.7-9.84 6.56-13.94 12.3-13.94 22.96"
        fill="none" stroke="black" stroke-width="13.12" stroke-linecap="round" stroke-linejoin="round"/>
      <circle cx="128" cy="179.2" r="7.38" fill="black"/>
    </mask>
  </defs>

  <g stroke-linejoin="round">
    <path d="M128 19 237 128 128 237 19 128Z"
      fill="none" stroke="#F4F7FB" stroke-width="10"/>
    <path d="M128 36 220 128 128 220 36 128Z"
      fill="#E6B94F" mask="url(#question-cutout)"/>
    <path d="M128 36 220 128 128 220 36 128Z"
      fill="none" stroke="#E6B94F" stroke-width="6"/>
    <path d="M128 49 207 128 128 207 49 128Z"
      fill="none" stroke="#F4F7FB" stroke-width="5" opacity=".42"/>
  </g>
</svg>
